<svg width="482" height="359" viewBox="0 0 482 359" fill="none" xmlns="http://www.w3.org/2000/svg">
<path d="M350.479 58.2502C352.382 58.2503 354.163 59.1515 355.291 60.6653L355.507 60.9758L475.402 286.432C477.962 290.362 475.225 295.577 470.537 295.704L10.8604 308.174C6.78583 308.285 3.78868 304.387 4.9424 300.478L67.4854 72.552L67.5606 72.3147C68.385 69.8931 70.6639 68.2503 73.2402 68.2502L350.479 58.2502ZM13.3936 300.102L466.748 287.804L349.396 66.2502L74.7354 76.2502L13.3936 300.102Z" fill="black"/>
<rect x="403.308" y="118" width="142" height="23" transform="rotate(62 403.308 118)" fill="#060606"/>
<path d="M448.686 237.042L456.315 232.986L457.954 236.069C457.993 236.143 458.039 236.237 458.09 236.35C458.145 236.461 458.189 236.571 458.224 236.679C458.383 237.139 458.426 237.569 458.353 237.97C458.283 238.374 458.116 238.737 457.852 239.059C457.588 239.38 457.251 239.65 456.841 239.868C456.234 240.191 455.627 240.314 455.02 240.238C454.417 240.16 453.895 239.84 453.455 239.276L453.163 238.854L452.014 236.693L449.275 238.149L448.686 237.042ZM451.058 241.502L453.362 238.347L454.243 239.313L451.731 242.769L451.058 241.502ZM453.063 236.135L454.091 238.069C454.128 238.139 454.173 238.215 454.225 238.296C454.279 238.381 454.336 238.457 454.395 238.525C454.568 238.723 454.762 238.854 454.976 238.916C455.194 238.977 455.413 238.988 455.632 238.948C455.851 238.909 456.054 238.839 456.241 238.74C456.429 238.64 456.598 238.511 456.75 238.354C456.905 238.194 457.017 238.008 457.085 237.795C457.156 237.58 457.158 237.346 457.091 237.092C457.071 237.003 457.041 236.912 457.001 236.82C456.963 236.732 456.925 236.652 456.888 236.581L455.86 234.648L453.063 236.135Z" fill="#E3E3E5"/>
<path d="M445.653 231.337L453.281 227.281L455.873 232.155L454.829 232.71L452.826 228.943L450.686 230.081L452.351 233.212L451.307 233.767L449.643 230.636L447.285 231.89L449.288 235.656L448.244 236.211L445.653 231.337Z" fill="#E3E3E5"/>
<path d="M441.888 224.256L449.516 220.2L450.105 221.307L446.815 223.057L448.843 226.871L452.133 225.122L452.725 226.234L445.096 230.29L444.505 229.178L447.8 227.426L445.772 223.611L442.477 225.364L441.888 224.256Z" fill="#E3E3E5"/>
<path d="M439.734 220.205L446.319 216.704L444.97 214.166L446.013 213.611L449.3 219.794L448.257 220.349L446.908 217.811L440.322 221.312L439.734 220.205Z" fill="#E3E3E5"/>
<path d="M435.689 212.599L443.318 208.542L445.909 213.416L444.866 213.971L442.863 210.205L440.723 211.343L442.388 214.474L441.344 215.028L439.679 211.898L437.322 213.151L439.324 216.918L438.281 217.473L435.689 212.599Z" fill="#E3E3E5"/>
<path d="M433.353 208.588C433.081 208.076 432.918 207.558 432.866 207.033C432.817 206.506 432.879 205.993 433.053 205.493C433.226 204.993 433.512 204.524 433.909 204.086C434.306 203.649 434.817 203.264 435.442 202.931C436.265 202.494 437.051 202.268 437.8 202.255C438.553 202.24 439.23 202.414 439.832 202.779C440.437 203.141 440.924 203.67 441.294 204.366C441.771 205.263 441.943 206.089 441.81 206.844C441.679 207.602 441.297 208.274 440.666 208.859L439.867 207.843C440.24 207.445 440.471 207.001 440.559 206.51C440.647 206.019 440.554 205.512 440.279 204.987C439.995 204.445 439.636 204.058 439.201 203.828C438.767 203.601 438.282 203.514 437.745 203.569C437.211 203.622 436.652 203.801 436.067 204.108C435.483 204.414 435.019 204.774 434.677 205.186C434.338 205.598 434.143 206.048 434.091 206.538C434.041 207.031 434.157 207.549 434.441 208.091C434.665 208.529 434.943 208.86 435.274 209.082C435.61 209.307 435.99 209.424 436.413 209.435C436.835 209.446 437.297 209.352 437.799 209.153L437.01 207.67L437.9 207.197L439.314 209.856C439.254 209.897 439.172 209.947 439.068 210.007C438.968 210.065 438.903 210.102 438.875 210.117C438.169 210.492 437.466 210.692 436.767 210.714C436.068 210.737 435.421 210.574 434.827 210.224C434.237 209.871 433.745 209.326 433.353 208.588Z" fill="#E3E3E5"/>
<path d="M429.451 201.25C429.046 200.487 428.866 199.749 428.913 199.036C428.963 198.321 429.21 197.661 429.655 197.058C430.102 196.458 430.719 195.949 431.506 195.53C432.294 195.111 433.061 194.884 433.808 194.849C434.557 194.818 435.241 194.983 435.858 195.343C436.479 195.701 436.992 196.262 437.398 197.025C437.802 197.784 437.978 198.522 437.928 199.237C437.884 199.954 437.638 200.612 437.191 201.212C436.745 201.812 436.128 202.321 435.34 202.74C434.552 203.159 433.785 203.386 433.038 203.42C432.291 203.455 431.606 203.292 430.983 202.93C430.366 202.569 429.855 202.01 429.451 201.25ZM430.506 200.69C430.786 201.234 431.143 201.619 431.576 201.847C432.015 202.075 432.501 202.163 433.035 202.111C433.572 202.056 434.132 201.874 434.715 201.564C435.297 201.254 435.758 200.894 436.097 200.482C436.439 200.07 436.636 199.618 436.688 199.128C436.742 198.642 436.627 198.128 436.344 197.586C436.063 197.041 435.706 196.654 435.27 196.423C434.837 196.196 434.352 196.11 433.814 196.165C433.277 196.219 432.716 196.4 432.132 196.706C431.547 197.012 431.084 197.372 430.741 197.785C430.403 198.196 430.207 198.646 430.155 199.136C430.105 199.63 430.222 200.147 430.506 200.69Z" fill="#E3E3E5"/>
<path d="M425.763 193.931L432.348 190.429L430.999 187.892L432.043 187.337L435.33 193.519L434.286 194.074L432.937 191.537L426.352 195.038L425.763 193.931Z" fill="#E3E3E5"/>
<path d="M420.655 184.324L428.284 180.267L428.873 181.375L425.313 183.268L430.571 184.569L431.304 185.947L425.785 184.552L423.807 190.252L423.052 188.832L424.889 183.493L421.244 185.431L420.655 184.324Z" fill="#E3E3E5"/>
<path d="M417.226 177.874L424.855 173.818L426.494 176.901C426.533 176.975 426.579 177.069 426.63 177.182C426.684 177.293 426.729 177.403 426.764 177.512C426.922 177.971 426.965 178.401 426.893 178.802C426.823 179.206 426.656 179.569 426.392 179.891C426.128 180.213 425.791 180.482 425.381 180.7C424.774 181.023 424.167 181.147 423.56 181.07C422.957 180.993 422.435 180.672 421.995 180.108L421.703 179.686L420.553 177.525L417.815 178.981L417.226 177.874ZM419.598 182.335L421.902 179.179L422.783 180.145L420.271 183.601L419.598 182.335ZM421.602 176.967L422.631 178.901C422.668 178.971 422.713 179.047 422.765 179.128C422.819 179.213 422.876 179.289 422.935 179.358C423.108 179.555 423.302 179.686 423.516 179.748C423.734 179.809 423.953 179.82 424.172 179.78C424.391 179.741 424.594 179.671 424.781 179.572C424.968 179.472 425.138 179.344 425.29 179.186C425.445 179.026 425.557 178.84 425.625 178.627C425.696 178.412 425.698 178.178 425.631 177.924C425.611 177.835 425.581 177.744 425.541 177.652C425.503 177.564 425.465 177.484 425.428 177.414L424.4 175.48L421.602 176.967Z" fill="#E3E3E5"/>
<path d="M414.824 173.741C414.419 172.978 414.239 172.24 414.286 171.526C414.336 170.811 414.583 170.152 415.028 169.548C415.475 168.949 416.092 168.439 416.879 168.02C417.667 167.602 418.434 167.375 419.181 167.34C419.93 167.309 420.614 167.473 421.231 167.834C421.852 168.192 422.365 168.753 422.771 169.516C423.175 170.275 423.351 171.012 423.301 171.727C423.257 172.444 423.011 173.103 422.564 173.703C422.118 174.303 421.501 174.812 420.713 175.231C419.925 175.649 419.158 175.876 418.411 175.911C417.664 175.946 416.979 175.782 416.356 175.42C415.739 175.06 415.228 174.5 414.824 173.741ZM415.879 173.18C416.159 173.724 416.516 174.11 416.949 174.337C417.388 174.566 417.874 174.654 418.408 174.601C418.945 174.547 419.505 174.364 420.088 174.055C420.67 173.745 421.131 173.384 421.47 172.973C421.812 172.56 422.009 172.109 422.061 171.619C422.115 171.133 422 170.618 421.717 170.076C421.436 169.532 421.079 169.145 420.643 168.914C420.21 168.687 419.725 168.601 419.188 168.655C418.65 168.71 418.089 168.89 417.505 169.197C416.92 169.503 416.457 169.863 416.115 170.275C415.776 170.687 415.58 171.137 415.528 171.627C415.478 172.12 415.595 172.638 415.879 173.18Z" fill="#E3E3E5"/>
<path d="M409.07 162.534L415.521 156.264L416.138 157.424L411.222 162.097L417.839 160.637L418.464 161.8L413.549 166.473L420.171 165.01L420.791 166.176L411.982 168.012L411.396 166.91L416.232 162.24L409.656 163.636L409.07 162.534Z" fill="#E3E3E5"/>
<path d="M405.238 155.712C404.947 155.164 404.778 154.62 404.73 154.079C404.688 153.54 404.766 153.034 404.963 152.562C405.166 152.092 405.487 151.686 405.926 151.343L406.715 152.405C406.311 152.77 406.076 153.207 406.012 153.717C405.951 154.225 406.053 154.726 406.316 155.22C406.479 155.528 406.677 155.785 406.909 155.992C407.145 156.197 407.395 156.33 407.657 156.389C407.926 156.45 408.187 156.414 408.441 156.278C408.579 156.205 408.687 156.116 408.767 156.01C408.849 155.908 408.906 155.793 408.938 155.667C408.976 155.543 408.992 155.406 408.984 155.255C408.982 155.107 408.965 154.951 408.932 154.787L408.47 152.525C408.426 152.304 408.395 152.072 408.378 151.827C408.364 151.58 408.386 151.336 408.443 151.093C408.505 150.851 408.616 150.622 408.777 150.405C408.942 150.186 409.179 149.994 409.49 149.829C409.96 149.579 410.421 149.488 410.874 149.555C411.332 149.624 411.753 149.821 412.139 150.146C412.528 150.469 412.859 150.887 413.131 151.399C413.399 151.919 413.552 152.428 413.591 152.928C413.632 153.432 413.558 153.906 413.369 154.351C413.185 154.798 412.886 155.197 412.47 155.549L411.638 154.47C411.896 154.265 412.081 154.021 412.194 153.739C412.311 153.455 412.357 153.159 412.333 152.85C412.313 152.539 412.226 152.236 412.074 151.941C411.931 151.655 411.75 151.418 411.533 151.23C411.317 151.046 411.089 150.927 410.848 150.874C410.608 150.824 410.381 150.857 410.165 150.972C409.954 151.084 409.815 151.237 409.75 151.43C409.685 151.623 409.662 151.831 409.68 152.052C409.703 152.275 409.738 152.49 409.785 152.696L410.137 154.317C410.181 154.52 410.22 154.755 410.254 155.022C410.293 155.292 410.293 155.57 410.256 155.857C410.22 156.148 410.115 156.428 409.941 156.697C409.771 156.964 409.5 157.197 409.129 157.394C408.744 157.598 408.364 157.701 407.988 157.701C407.616 157.7 407.259 157.616 406.916 157.449C406.579 157.284 406.267 157.051 405.981 156.751C405.694 156.45 405.447 156.104 405.238 155.712Z" fill="#E3E3E5"/>
<path d="M408.044 148.336L408.573 148.143C408.643 148.3 408.734 148.403 408.846 148.452C408.959 148.501 409.082 148.508 409.217 148.473C409.352 148.437 409.491 148.37 409.634 148.272L409.31 147.662L410.586 146.984L411.209 148.154L409.826 148.889C409.41 149.111 409.042 149.178 408.723 149.089C408.406 149.004 408.179 148.753 408.044 148.336Z" fill="#E3E3E5"/>
<path d="M400.747 146.883L407.332 143.381L405.983 140.844L407.027 140.289L410.314 146.471L409.27 147.026L407.921 144.489L401.336 147.99L400.747 146.883Z" fill="#E3E3E5"/>
<path d="M396.703 139.276L404.332 135.22L406.923 140.094L405.88 140.649L403.877 136.882L401.736 138.02L403.401 141.151L402.358 141.706L400.693 138.575L398.335 139.828L400.338 143.595L399.294 144.15L396.703 139.276Z" fill="#E3E3E5"/>
<path d="M394.034 134.257L401.663 130.201L402.252 131.308L395.667 134.809L397.503 138.263L396.459 138.818L394.034 134.257Z" fill="#E3E3E5"/>
<path d="M462 283H477V298H462V283Z" fill="#D9D9D9"/>
<path d="M477 283H462V298H477V283ZM482 303H457V278H482V303Z" fill="black"/>
<path d="M346 54.0002H361V69.0002H346V54.0002Z" fill="#D9D9D9"/>
<path d="M361 54.0002H346V69.0002H361V54.0002ZM366 74.0002H341V49.0002H366V74.0002Z" fill="black"/>
<path d="M63 65.0002H78V80.0002H63V65.0002Z" fill="#D9D9D9"/>
<path d="M78 65.0002H63V80.0002H78V65.0002ZM83 85.0002H58V60.0002H83V85.0002Z" fill="black"/>
<path d="M5 296H20V311H5V296Z" fill="#D9D9D9"/>
<path d="M20 296H5V311H20V296ZM25 316H0V291H25V316Z" fill="black"/>
<path d="M230.356 37.9724C239.154 53.8417 214.96 49.7275 201.763 45.6867L249.051 86.465L230.356 94.1792C240.62 114.383 267.527 155.673 293.04 159.199C318.554 162.726 296.34 125.403 282.043 106.302C340.329 102.995 372.221 171.322 367.822 192.26C363.423 213.199 323.844 198.102 316.929 196.718C315.573 196.447 312.931 199.377 318.334 200.869C378.475 217.473 407.412 312.382 407.412 312.382L458 322.3V346.545H363.423C355.654 324.014 336.983 295.649 316.135 281.525C298.578 269.63 287.544 285.272 283.044 292.882C265.448 322.637 240.253 350.953 180.868 346.545C133.36 343.018 105.353 294.382 97.2884 270.504L56.5984 281.525L50 263.892L113.785 213.199C120.5 303.5 197.364 288.137 201.763 241.852C206.162 195.566 152.275 143.771 158.873 171.322C165.472 198.872 158.874 208.791 144.577 206.587C126.5 203.8 81.8924 128.342 113.785 117.322C139.298 108.506 165.472 123.199 175.369 131.648C188.997 106.302 139.812 50.8305 113.785 24.748C142.378 -1.70075 219.359 18.1358 230.356 37.9724Z" fill="#9898A3"/>
<path d="M407.412 312.382C407.412 312.382 378.7 218.213 319.037 201.068L318.334 200.869C312.932 199.378 315.572 196.447 316.929 196.718C323.79 198.091 362.807 212.964 367.713 192.744L367.822 192.26C372.221 171.321 340.329 102.996 282.043 106.302C296.228 125.255 318.207 162.144 293.63 159.275L293.04 159.199C267.526 155.673 240.62 114.383 230.356 94.1789L249.051 86.465L201.763 45.6867C214.753 49.6644 238.401 53.7132 230.744 38.7014L230.356 37.9728C219.359 18.1362 142.377 -1.70057 113.784 24.7482C139.811 50.8307 188.996 106.302 175.369 131.649C165.472 123.2 139.298 108.505 113.784 117.321C81.8925 128.342 126.5 203.799 144.577 206.586C158.874 208.79 165.471 198.872 158.873 171.321C152.275 143.771 206.162 195.566 201.763 241.852L201.646 242.931C196.167 288.371 120.447 302.794 113.784 213.198L50 263.892L56.5986 281.525L97.2881 270.504C105.353 294.381 133.36 343.019 180.868 346.545C240.253 350.953 265.448 322.637 283.044 292.882C287.544 285.272 298.578 269.63 316.135 281.525C336.657 295.428 355.07 323.132 363.051 345.485L363.423 346.545H458V322.3L407.412 312.382ZM173.426 190.831C173.302 196.122 172.393 200.951 170.452 205.149C167.985 210.483 163.898 214.665 158.378 216.961C153.166 219.128 147.674 219.206 142.749 218.446C137.299 217.606 132.592 214.488 129.178 211.707C127.931 210.692 126.69 209.581 125.46 208.394L125.752 212.309C128.871 254.247 147.228 265.786 159.606 266.784C173.858 267.933 188.255 257.144 189.816 240.716C191.415 223.897 183.265 204.836 173.426 190.831ZM470 358.545H354.867L352.079 350.456C344.931 329.726 327.594 303.783 309.404 291.459C306.54 289.519 304.754 289.228 303.897 289.207C303.048 289.186 302.13 289.407 300.956 290.125C298.125 291.857 295.488 295.415 293.373 298.99C284.202 314.499 272.35 330.884 254.122 342.615C235.665 354.495 211.832 360.876 179.979 358.512C152.104 356.443 130.558 341.158 115.345 324.159C103.82 311.283 95.414 296.88 90.0742 284.89L49.1895 295.964L35.7031 259.927L115.293 196.671C109.47 188.883 103.888 179.555 99.5312 170.036C94.5135 159.074 90.5733 146.678 90.5996 135.498C90.6131 129.806 91.656 123.702 94.8086 118.223C98.1046 112.494 103.249 108.266 109.865 105.98C125.851 100.456 141.596 102.449 154.2 106.617C157.353 107.66 160.369 108.858 163.213 110.148C160.486 102.812 155.721 94.3054 149.534 85.2365C136.299 65.8353 118.091 46.0526 105.29 33.2238L96.4863 24.4016L105.636 15.9387C115.255 7.04033 128.127 2.71074 140.9 0.975773C153.802 -0.77657 167.711 -0.0428903 180.689 2.17402C193.681 4.39307 206.253 8.18636 216.537 12.9162C226.138 17.332 236.126 23.6292 240.852 32.1535C243.619 37.1461 246.651 45.5925 241.314 53.2824C239.587 55.7712 237.417 57.4787 235.178 58.6555L271.661 90.1164L247.402 100.126C252.173 108.051 258.306 117.083 265.155 125.21C270.389 131.421 275.806 136.821 281.105 140.779C285.074 143.742 288.602 145.612 291.633 146.592C291.505 146.208 291.365 145.804 291.209 145.381C287.67 135.768 279.388 122.781 272.436 113.491L259.035 95.5871L281.363 94.3205C315.85 92.3643 341.826 111.731 357.98 132.911C366.103 143.561 372.094 155.072 375.787 165.536C379.303 175.498 381.349 186.239 379.565 194.728C377.458 204.759 370.63 210.703 362.847 213.347C362.77 213.373 362.693 213.397 362.616 213.422C376.606 226.521 387.611 242.496 395.844 256.896C403.57 270.41 409.3 283.327 413.098 292.847C414.505 296.375 415.653 299.453 416.545 301.943L470 312.424V358.545Z" fill="black"/>
</svg>
