<svg width="904" height="648" viewBox="0 0 904 648" fill="none" xmlns="http://www.w3.org/2000/svg">
<path d="M778 278.5L226.5 189.5L9.5 552L894 613L778 278.5Z" fill="#9898A3"/>
<path d="M624.827 72.1094V102.824H594.111V72.1094H624.827Z" fill="#D2D2D6" stroke="#060606" stroke-width="4"/>
<path d="M244.716 175V205.715H214V175H244.716Z" fill="#D2D2D6" stroke="#060606" stroke-width="4"/>
<path d="M787.685 265V295.715H756.969V265H787.685Z" fill="#D2D2D6" stroke="#060606" stroke-width="4"/>
<path d="M32.7158 534V564.715H2V534H32.7158Z" fill="#D2D2D6" stroke="#060606" stroke-width="4"/>
<path d="M902 594.715V625.43H871.284V594.715H902Z" fill="#D2D2D6" stroke="#060606" stroke-width="4"/>
<path d="M64.8154 639.382H251.556L253.182 634.663C267.174 594.067 300.895 543.05 337.865 517.992C345.086 513.099 351.162 511.344 356.179 511.222C361.192 511.099 365.729 512.591 369.9 515.145C378.525 520.424 384.975 529.852 389.054 536.752C405.527 564.62 425.966 592.545 456.729 612.353C487.626 632.247 528.264 643.531 584.387 639.363C630.682 635.925 667.119 610.51 693.629 580.878C717.814 553.845 734.174 522.841 742.704 500.272L811.648 518.954L817.802 520.621L820.035 514.649L832.228 482.058L834.01 477.292L830.027 474.126L712.174 380.422L703.725 373.705L701.037 384.158C688.474 433.026 672.809 465.317 656.696 485.153C640.65 504.908 624.575 511.883 610.698 511.564C596.673 511.242 583.147 503.438 572.399 490.081C561.671 476.746 554.142 458.334 552.229 438.202C548.412 398.018 570.044 354.475 591.898 326.841C597.294 320.018 602.592 314.312 607.354 309.988C612.019 305.752 615.846 303.144 618.515 301.945C618.439 303.151 618.202 304.768 617.7 306.864C611.552 332.546 610.995 351.91 616.883 364.648C619.973 371.333 624.834 376.168 631.248 378.837C637.483 381.43 644.597 381.738 651.989 380.598C658.026 379.667 664.153 375.97 669.795 371.373C675.609 366.636 681.671 360.308 687.616 353.011C699.513 338.409 711.415 319.343 720.357 299.799C729.243 280.38 735.526 259.8 735.484 242.313C735.464 233.511 733.839 225.064 729.729 217.917C725.534 210.624 719.005 205.14 710.104 202.063C684.65 193.264 659.126 196.286 637.903 203.307C621.569 208.71 607.458 216.586 597.367 223.738C595.791 215.581 597.02 205.477 601.054 193.542C606.492 177.452 616.6 159.338 629.23 140.816C654.458 103.822 688.852 66.4887 712.773 42.5068L717.905 37.3613L712.571 32.4258C697.922 18.8696 677.552 11.6378 655.675 8.66504C633.723 5.68216 609.619 6.89539 586.753 10.8027C563.88 14.7113 541.946 21.3673 524.302 29.4854C507.056 37.4204 492.54 47.3688 486.308 58.6152C481.912 66.5466 479.971 74.9111 484.646 81.6514C488.903 87.7869 496.744 89.4862 503.129 89.9219C508.15 90.2644 513.828 89.9148 519.615 89.1465L453.314 146.343L444.702 153.772L455.216 158.113L482.667 169.444C472.944 187.442 457.664 211.759 439.732 233.045C429.6 245.073 418.757 255.97 407.737 264.202C396.668 272.471 385.827 277.745 375.65 279.152C370.403 279.878 367.242 279.415 365.458 278.703C363.953 278.103 363.199 277.259 362.707 275.991C362.109 274.449 361.812 271.952 362.298 268.23C362.776 264.573 363.944 260.218 365.754 255.301C373.067 235.426 389.44 210.005 402.533 192.503L410.347 182.06L397.325 181.32C340.359 178.088 296.702 209.951 268.683 246.704C254.646 265.116 244.33 284.987 238.026 302.854C231.826 320.429 229.155 337.063 231.586 348.637C234.205 361.11 242.358 368.351 252.509 371.801C262.182 375.088 273.722 375.014 284.528 373.743C286.424 373.52 288.319 373.254 290.205 372.959C250.904 396.929 220.949 437.257 199.832 474.208C185.999 498.413 175.707 521.613 168.874 538.751C165.455 547.327 162.895 554.402 161.185 559.349C160.68 560.808 160.251 562.084 159.894 563.158L70.4688 580.698L64.8154 581.807V639.382Z" fill="#D2D2D6" stroke="black" stroke-width="14"/>
<rect width="157.313" height="38.7022" transform="matrix(0.515038 -0.857167 0.857162 0.515047 15 466.844)" fill="#060606"/>
<path d="M43.3032 463.964L35.9761 459.386L36.6406 458.322L42.9653 462.274L45.0384 458.957L46.0408 459.583L43.3032 463.964ZM46.3156 459.143L38.9885 454.565L41.9137 449.884L42.9161 450.51L40.6554 454.128L42.7111 455.412L44.5902 452.405L45.5926 453.031L43.7135 456.039L45.9778 457.454L48.2384 453.836L49.2408 454.462L46.3156 459.143ZM50.8808 451.837L44.5561 447.885L43.0331 450.323L42.0308 449.696L45.7413 443.758L46.7436 444.385L45.2207 446.822L51.5454 450.774L50.8808 451.837ZM48.4911 444.792L48.0592 444.43C48.1605 444.291 48.2044 444.16 48.1908 444.039C48.1772 443.917 48.1213 443.807 48.0229 443.707C47.9245 443.608 47.7971 443.521 47.6406 443.447L47.275 444.032L46.0487 443.266L46.7514 442.142L48.0794 442.971C48.4797 443.222 48.7212 443.507 48.8039 443.827C48.8887 444.145 48.7844 444.466 48.4911 444.792ZM56.2817 443.534C55.9531 444.06 55.5665 444.479 55.1217 444.79C54.6757 445.096 54.199 445.282 53.6914 445.347C53.1827 445.406 52.6705 445.331 52.1549 445.122L52.6801 443.908C53.1978 444.076 53.6934 444.06 54.167 443.861C54.6372 443.66 55.0207 443.321 55.3175 442.847C55.5019 442.551 55.6257 442.251 55.6888 441.947C55.7486 441.64 55.7386 441.357 55.6588 441.1C55.5778 440.837 55.4152 440.629 55.171 440.477C55.0387 440.394 54.9068 440.345 54.7754 440.329C54.646 440.309 54.5186 440.317 54.3931 440.352C54.2664 440.381 54.1398 440.436 54.0135 440.518C53.8858 440.594 53.7593 440.687 53.6338 440.797L51.9059 442.328C51.7372 442.477 51.5511 442.62 51.3476 442.757C51.1407 442.892 50.9179 442.996 50.6792 443.068C50.4392 443.135 50.185 443.153 49.9166 443.122C49.6448 443.089 49.3597 442.98 49.0612 442.793C48.61 442.511 48.3005 442.157 48.1325 441.732C47.9633 441.3 47.923 440.837 48.0115 440.34C48.0967 439.841 48.293 439.346 48.6003 438.854C48.9166 438.363 49.2814 437.976 49.6948 437.692C50.1103 437.404 50.558 437.231 51.038 437.173C51.5166 437.108 52.0123 437.168 52.5249 437.352L52.0061 438.612C51.6995 438.492 51.3959 438.453 51.0953 438.496C50.7913 438.537 50.5115 438.645 50.2558 438.82C49.9968 438.993 49.7776 439.22 49.5983 439.499C49.4219 439.766 49.3068 440.041 49.253 440.323C49.2013 440.602 49.2128 440.86 49.2874 441.095C49.3642 441.327 49.506 441.507 49.713 441.637C49.9165 441.764 50.1181 441.807 50.3178 441.767C50.5175 441.727 50.7087 441.643 50.8914 441.517C51.0729 441.385 51.2414 441.248 51.397 441.104L52.6244 439.989C52.7779 439.849 52.9621 439.698 53.177 439.535C53.3907 439.367 53.6313 439.227 53.8988 439.116C54.1685 439.001 54.4634 438.952 54.7835 438.968C55.1002 438.982 55.4367 439.1 55.7929 439.323C56.1626 439.554 56.4416 439.832 56.6299 440.157C56.8148 440.48 56.9206 440.832 56.9474 441.212C56.9728 441.586 56.9271 441.973 56.8101 442.371C56.6931 442.77 56.517 443.157 56.2817 443.534ZM60.2746 436.804L51.6185 434.353L52.3148 433.238L58.8193 435.159L54.2467 430.158L54.9411 429.035L61.4456 430.956L56.8678 425.952L57.5673 424.832L63.5622 431.543L62.9009 432.601L56.4384 430.749L60.9359 435.746L60.2746 436.804ZM67.1023 426.217C66.6444 426.95 66.095 427.475 65.4539 427.791C64.8095 428.105 64.1148 428.221 63.3698 428.137C62.6269 428.05 61.8773 427.771 61.1208 427.298C60.3644 426.825 59.7843 426.274 59.3806 425.644C58.979 425.011 58.7799 424.337 58.7832 423.623C58.7831 422.906 59.012 422.181 59.4699 421.448C59.9256 420.719 60.4757 420.197 61.1202 419.883C61.7633 419.563 62.4563 419.447 63.1992 419.533C63.942 419.62 64.6917 419.9 65.4481 420.373C66.2046 420.845 66.7847 421.397 67.1884 422.026C67.5921 422.656 67.7929 423.331 67.7909 424.051C67.7875 424.766 67.558 425.488 67.1023 426.217ZM66.0897 425.585C66.4208 425.07 66.5764 424.568 66.5564 424.079C66.5351 423.585 66.3683 423.12 66.0557 422.684C65.7398 422.246 65.302 421.852 64.7423 421.502C64.1826 421.153 63.6401 420.934 63.1147 420.846C62.586 420.756 62.0965 420.811 61.6462 421.011C61.1981 421.207 60.8102 421.564 60.4824 422.081C60.1514 422.596 59.9947 423.099 60.0126 423.591C60.0326 424.08 60.2005 424.544 60.5164 424.982C60.8323 425.42 61.2691 425.815 61.8267 426.168C62.3843 426.521 62.9274 426.743 63.4562 426.833C63.9815 426.92 64.4693 426.864 64.9196 426.665C65.372 426.462 65.762 426.102 66.0897 425.585ZM69.4809 422.071L62.1539 417.493L64.0043 414.531C64.0488 414.46 64.1074 414.374 64.1798 414.273C64.2489 414.17 64.3217 414.076 64.398 413.992C64.7168 413.625 65.0678 413.373 65.4511 413.235C65.8365 413.094 66.2344 413.057 66.6449 413.125C67.0553 413.192 67.4573 413.349 67.8508 413.595C68.4342 413.96 68.8447 414.424 69.0822 414.987C69.3163 415.549 69.2994 416.161 69.0315 416.823L68.8121 417.288L67.5148 419.364L70.1455 421.008L69.4809 422.071ZM72.1581 417.787L68.2734 417.369L68.6695 416.123L72.918 416.571L72.1581 417.787ZM66.5074 418.734L67.6679 416.877C67.7103 416.809 67.7535 416.732 67.7976 416.647C67.8438 416.558 67.8818 416.471 67.9114 416.385C67.9962 416.136 68.0121 415.903 67.9591 415.686C67.9026 415.467 67.8026 415.273 67.6588 415.103C67.5151 414.933 67.3533 414.791 67.1735 414.679C66.9937 414.567 66.7976 414.484 66.5852 414.432C66.3694 414.377 66.1523 414.373 65.9339 414.421C65.7122 414.466 65.508 414.582 65.3215 414.767C65.2545 414.829 65.1911 414.9 65.1314 414.981C65.0737 415.058 65.0237 415.13 64.9813 415.198L63.8208 417.055L66.5074 418.734ZM73.3518 415.876L66.0247 411.298L66.6893 410.234L70.1086 412.371L68.6065 407.166L69.4332 405.843L70.9849 411.32L76.9097 410.183L76.0576 411.546L70.5156 412.625L74.0164 414.813L73.3518 415.876ZM79.1177 406.649L72.793 402.697L71.27 405.134L70.2676 404.508L73.9781 398.57L74.9805 399.196L73.4575 401.633L79.7822 405.586L79.1177 406.649ZM83.6126 399.795C83.1547 400.528 82.6053 401.053 81.9642 401.369C81.3198 401.683 80.625 401.799 79.8801 401.715C79.1372 401.628 78.3876 401.349 77.6311 400.876C76.8747 400.403 76.2946 399.852 75.8909 399.222C75.4893 398.589 75.2902 397.916 75.2935 397.201C75.2934 396.484 75.5223 395.759 75.9802 395.026C76.4359 394.297 76.986 393.775 77.6304 393.461C78.2736 393.141 78.9666 393.025 79.7095 393.111C80.4523 393.198 81.202 393.478 81.9584 393.951C82.7149 394.423 83.295 394.975 83.6987 395.604C84.1024 396.234 84.3032 396.909 84.3011 397.629C84.2978 398.344 84.0683 399.066 83.6126 399.795ZM82.6 399.163C82.9311 398.648 83.0867 398.146 83.0667 397.657C83.0454 397.163 82.8785 396.698 82.566 396.262C82.2501 395.824 81.8123 395.43 81.2526 395.08C80.6929 394.731 80.1504 394.512 79.625 394.424C79.0963 394.334 78.6068 394.389 78.1565 394.589C77.7084 394.785 77.3204 395.142 76.9927 395.659C76.6616 396.174 76.505 396.677 76.5229 397.169C76.5428 397.658 76.7108 398.122 77.0267 398.56C77.3426 398.998 77.7794 399.393 78.337 399.746C78.8946 400.099 79.4377 400.321 79.9665 400.411C80.4918 400.498 80.9796 400.442 81.4299 400.243C81.8822 400.04 82.2723 399.68 82.6 399.163ZM88.0166 392.747C87.7093 393.239 87.3415 393.639 86.9133 393.947C86.4817 394.253 86.006 394.456 85.4862 394.555C84.9663 394.655 84.4177 394.642 83.8402 394.517C83.2627 394.392 82.6737 394.142 82.0733 393.767C81.283 393.273 80.6946 392.705 80.3083 392.063C79.9186 391.418 79.7311 390.744 79.7459 390.041C79.7573 389.336 79.9717 388.65 80.3893 387.981C80.9277 387.12 81.5571 386.558 82.2774 386.296C82.9999 386.03 83.7722 386.025 84.5944 386.279L84.1137 387.479C83.5828 387.354 83.0829 387.377 82.614 387.546C82.1451 387.715 81.7521 388.05 81.4349 388.55C81.1072 389.067 80.9523 389.571 80.9702 390.064C80.9901 390.552 81.1581 391.016 81.474 391.454C81.7865 391.89 82.2216 392.284 82.7792 392.637C83.3368 392.99 83.8799 393.212 84.4087 393.302C84.934 393.389 85.4218 393.333 85.8721 393.134C86.3245 392.931 86.7145 392.571 87.0422 392.054C87.3097 391.641 87.457 391.235 87.4841 390.837C87.5099 390.433 87.4219 390.046 87.2201 389.674C87.0182 389.303 86.7059 388.95 86.2832 388.615L85.3929 390.04L84.5381 389.505L86.1342 386.951C86.1995 386.982 86.2841 387.028 86.388 387.088C86.4884 387.147 86.5523 387.184 86.5794 387.201C87.2578 387.625 87.7817 388.134 88.1511 388.728C88.5204 389.322 88.702 389.964 88.6957 390.653C88.686 391.34 88.4596 392.039 88.0166 392.747ZM90.3217 388.719L82.9946 384.14L85.9197 379.459L86.9221 380.086L84.6615 383.703L86.7171 384.988L88.5962 381.981L89.5986 382.607L87.7195 385.614L89.9838 387.029L92.2444 383.411L93.2468 384.038L90.3217 388.719ZM94.8869 381.413L88.5622 377.461L87.0392 379.898L86.0368 379.272L89.7473 373.334L90.7497 373.96L89.2267 376.397L95.5514 380.35L94.8869 381.413ZM97.3183 377.522L89.9912 372.944L90.6557 371.88L93.8155 373.855L96.1047 370.191L92.9449 368.216L93.6126 367.148L100.94 371.727L100.272 372.795L97.1071 370.817L94.8179 374.481L97.9828 376.459L97.3183 377.522ZM101.568 370.721L94.2409 366.143L97.166 361.461L98.1684 362.088L95.9078 365.705L97.9634 366.99L99.8425 363.983L100.845 364.609L98.9658 367.616L101.23 369.031L103.491 365.414L104.493 366.04L101.568 370.721ZM104.992 365.242L97.6646 360.663L99.5151 357.702C99.5596 357.631 99.6181 357.545 99.6906 357.444C99.7597 357.341 99.8324 357.247 99.9087 357.163C100.228 356.796 100.579 356.544 100.962 356.406C101.347 356.264 101.745 356.228 102.156 356.296C102.566 356.363 102.968 356.52 103.362 356.766C103.945 357.131 104.355 357.595 104.593 358.158C104.827 358.72 104.81 359.332 104.542 359.994L104.323 360.459L103.026 362.535L105.656 364.178L104.992 365.242ZM107.669 360.958L103.784 360.539L104.18 359.294L108.429 359.742L107.669 360.958ZM102.018 361.905L103.179 360.048C103.221 359.98 103.264 359.903 103.308 359.818C103.355 359.729 103.393 359.641 103.422 359.556C103.507 359.307 103.523 359.074 103.47 358.857C103.413 358.638 103.313 358.443 103.17 358.273C103.026 358.103 102.864 357.962 102.684 357.85C102.505 357.738 102.308 357.655 102.096 357.603C101.88 357.548 101.663 357.544 101.445 357.592C101.223 357.637 101.019 357.753 100.832 357.938C100.765 358 100.702 358.071 100.642 358.152C100.584 358.229 100.534 358.301 100.492 358.369L99.3315 360.226L102.018 361.905Z" fill="#E3E3E5"/>
</svg>
