<svg width="552" height="395" viewBox="0 0 552 395" fill="none" xmlns="http://www.w3.org/2000/svg">
<path d="M401.002 34.5L73 115.5L7 370.5H544.502L401.002 34.5Z" fill="#9898A3"/>
<path d="M408 28V48H388V28H408Z" fill="#D2D2D6" stroke="#060606" stroke-width="4"/>
<path d="M82 106V126H62V106H82Z" fill="#D2D2D6" stroke="#060606" stroke-width="4"/>
<path d="M22 358V378H2V358H22Z" fill="#D2D2D6" stroke="#060606" stroke-width="4"/>
<path d="M550 359V379H530V359H550Z" fill="#D2D2D6" stroke="#060606" stroke-width="4"/>
<path d="M509.483 388.358H394.549L393.154 384.313C384.868 360.271 364.874 330.081 343.133 315.345C339.038 312.57 335.73 311.664 333.135 311.601C330.543 311.537 328.164 312.301 325.904 313.685C321.143 316.599 317.469 321.906 315.047 326.004C305.125 342.789 292.71 359.795 273.938 371.882C255.052 384.043 230.309 390.862 196.371 388.342C168.024 386.237 145.8 370.677 129.732 352.717C115.621 336.943 105.912 318.952 100.589 305.406L60.8711 316.169L55.5967 317.598L53.6816 312.479L46.3799 292.96L44.8525 288.875L48.2656 286.161L118.849 230.041L126.09 224.283L128.394 233.243C135.883 262.374 145.178 281.439 154.602 293.041C163.969 304.574 173.108 308.366 180.706 308.191C188.431 308.014 196.073 303.708 202.275 295.999C208.462 288.309 212.85 277.622 213.965 265.89C216.188 242.492 203.548 216.875 190.588 200.486C187.406 196.463 184.3 193.121 181.535 190.61C180.453 189.627 179.466 188.811 178.585 188.146C182.028 203.03 182.388 214.753 178.684 222.768C176.658 227.149 173.427 230.39 169.135 232.176C164.996 233.898 160.373 234.061 155.742 233.347C151.646 232.715 147.67 230.255 144.212 227.438C140.606 224.499 136.89 220.612 133.279 216.181C126.053 207.31 118.844 195.759 113.428 183.921C108.061 172.19 104.18 159.587 104.205 148.736C104.218 143.26 105.227 137.863 107.893 133.228C110.63 128.467 114.895 124.905 120.622 122.926C136.353 117.487 152.065 119.377 165.021 123.663C173.709 126.537 181.37 130.555 187.289 134.443C187.489 130.487 186.707 125.722 184.811 120.109C181.629 110.696 175.678 100.002 168.155 88.9707C153.139 66.9492 132.629 44.6807 118.335 30.3496L113.936 25.9395L118.508 21.709C127.654 13.2455 140.259 8.82202 153.567 7.01367C166.939 5.19664 181.565 5.93987 195.393 8.30273C209.226 10.6667 222.517 14.6963 233.246 19.6328C243.634 24.4124 252.796 30.5721 256.826 37.8447C259.544 42.7493 261.142 48.6215 257.725 53.5479C254.667 57.9559 249.191 59.0084 245.293 59.2744C243.844 59.3733 242.314 59.3781 240.734 59.3105L276.185 89.8936L283.567 96.2617L274.555 99.9824L259.978 105.999C265.774 116.482 274.449 130.067 284.521 142.024C290.535 149.163 296.928 155.58 303.382 160.401C309.878 165.254 316.085 168.228 321.765 169.014C324.741 169.425 326.285 169.122 326.952 168.855C327.38 168.685 327.468 168.556 327.584 168.257C327.791 167.723 327.992 166.565 327.722 164.496C327.459 162.483 326.803 160.012 325.747 157.143C321.459 145.49 311.782 130.433 303.97 119.99L297.272 111.039L308.434 110.406C343.356 108.425 370.019 127.977 387.018 150.274C395.54 161.453 401.808 173.522 405.646 184.398C409.394 195.024 411.125 205.369 409.566 212.79C407.846 220.983 402.433 225.766 395.849 228.004C390.932 229.675 385.346 229.961 379.959 229.62C400.799 244.442 416.847 266.539 428.385 286.729C436.722 301.317 442.921 315.293 447.035 325.611C449.095 330.777 450.638 335.041 451.67 338.027C451.83 338.492 451.975 338.926 452.111 339.327L504.639 349.63L509.483 350.58V388.358Z" fill="#9898A3" stroke="black" stroke-width="12"/>
<rect width="142.096" height="23.1789" transform="translate(469.081 135.07) rotate(67)" fill="#060606"/>
<path d="M457.986 150.108L465.939 146.732L466.429 147.886L459.564 150.8L461.093 154.401L460.005 154.863L457.986 150.108ZM460.207 155.341L468.16 151.965L470.317 157.046L469.229 157.508L467.562 153.581L465.331 154.528L466.717 157.792L465.629 158.254L464.243 154.99L461.785 156.033L463.452 159.96L462.364 160.422L460.207 155.341ZM463.573 163.271L470.439 160.357L469.316 157.711L470.404 157.249L473.139 163.695L472.051 164.156L470.928 161.511L464.063 164.425L463.573 163.271ZM470.715 165.354L471.259 165.208C471.315 165.371 471.397 165.482 471.505 165.54C471.612 165.599 471.735 165.616 471.872 165.593C472.01 165.569 472.154 165.514 472.305 165.429L472.035 164.794L473.366 164.229L473.884 165.449L472.443 166.061C472.008 166.246 471.636 166.28 471.326 166.164C471.018 166.051 470.814 165.781 470.715 165.354ZM467.277 172.458C467.035 171.887 466.914 171.33 466.914 170.787C466.919 170.246 467.04 169.749 467.278 169.296C467.521 168.845 467.876 168.468 468.343 168.166L469.037 169.293C468.602 169.62 468.331 170.035 468.222 170.538C468.118 171.038 468.175 171.546 468.394 172.062C468.53 172.382 468.704 172.656 468.918 172.882C469.135 173.107 469.372 173.261 469.628 173.343C469.89 173.428 470.154 173.414 470.419 173.301C470.562 173.24 470.678 173.16 470.767 173.062C470.857 172.967 470.924 172.859 470.967 172.736C471.016 172.615 471.043 172.48 471.049 172.33C471.06 172.181 471.057 172.024 471.038 171.858L470.775 169.565C470.75 169.341 470.739 169.106 470.744 168.861C470.752 168.614 470.795 168.372 470.872 168.135C470.955 167.9 471.086 167.682 471.265 167.48C471.448 167.276 471.702 167.105 472.026 166.968C472.516 166.76 472.983 166.709 473.428 166.816C473.878 166.925 474.281 167.158 474.637 167.515C474.997 167.871 475.29 168.315 475.517 168.849C475.737 169.39 475.846 169.911 475.841 170.413C475.838 170.918 475.723 171.384 475.496 171.811C475.274 172.24 474.941 172.611 474.496 172.926L473.761 171.778C474.036 171.596 474.242 171.37 474.379 171.099C474.52 170.826 474.592 170.535 474.595 170.225C474.602 169.913 474.542 169.604 474.416 169.297C474.298 168.999 474.139 168.747 473.939 168.541C473.74 168.339 473.523 168.201 473.287 168.127C473.053 168.057 472.824 168.07 472.599 168.165C472.378 168.259 472.227 168.399 472.146 168.586C472.064 168.772 472.023 168.977 472.021 169.199C472.025 169.423 472.041 169.64 472.069 169.85L472.279 171.495C472.305 171.701 472.324 171.938 472.334 172.208C472.349 172.48 472.326 172.757 472.263 173.04C472.202 173.326 472.074 173.596 471.877 173.849C471.684 174.1 471.394 174.308 471.007 174.472C470.606 174.643 470.218 174.712 469.844 174.679C469.473 174.646 469.124 174.531 468.798 174.335C468.476 174.141 468.186 173.882 467.927 173.557C467.667 173.233 467.451 172.866 467.277 172.458ZM470.5 179.588L477.473 173.904L477.986 175.113L472.682 179.34L479.402 178.463L479.923 179.675L474.619 183.902L481.344 183.022L481.859 184.237L472.924 185.299L472.436 184.15L477.66 179.919L470.987 180.737L470.5 179.588ZM475.256 191.254C474.918 190.458 474.804 189.707 474.912 189.001C475.025 188.293 475.328 187.657 475.824 187.095C476.321 186.536 476.981 186.083 477.802 185.734C478.623 185.386 479.407 185.227 480.154 185.257C480.903 185.291 481.569 185.514 482.153 185.927C482.74 186.338 483.203 186.942 483.54 187.737C483.876 188.529 483.988 189.279 483.876 189.987C483.769 190.697 483.467 191.331 482.97 191.89C482.473 192.449 481.813 192.902 480.992 193.251C480.171 193.599 479.387 193.759 478.64 193.728C477.892 193.698 477.224 193.475 476.635 193.06C476.052 192.647 475.592 192.045 475.256 191.254ZM476.355 190.787C476.587 191.354 476.909 191.769 477.32 192.033C477.738 192.299 478.214 192.429 478.751 192.423C479.291 192.415 479.864 192.283 480.472 192.025C481.079 191.767 481.57 191.448 481.943 191.068C482.32 190.686 482.556 190.254 482.65 189.77C482.746 189.291 482.677 188.768 482.441 188.204C482.21 187.637 481.887 187.22 481.473 186.952C481.062 186.688 480.586 186.56 480.046 186.568C479.506 186.575 478.931 186.706 478.322 186.96C477.713 187.214 477.22 187.532 476.843 187.914C476.47 188.294 476.236 188.726 476.141 189.209C476.048 189.696 476.12 190.222 476.355 190.787ZM477.288 195.58L485.241 192.204L486.606 195.419C486.638 195.496 486.675 195.593 486.716 195.711C486.761 195.826 486.796 195.94 486.822 196.051C486.939 196.522 486.945 196.954 486.838 197.347C486.732 197.744 486.534 198.091 486.243 198.389C485.952 198.686 485.593 198.925 485.166 199.106C484.533 199.375 483.917 199.445 483.319 199.317C482.725 199.186 482.234 198.822 481.844 198.222L481.59 197.776L480.633 195.523L477.778 196.735L477.288 195.58ZM479.262 200.231L481.833 197.288L482.626 198.327L479.822 201.551L479.262 200.231ZM481.727 195.058L482.583 197.074C482.614 197.148 482.652 197.227 482.697 197.313C482.743 197.402 482.793 197.483 482.846 197.556C483.001 197.768 483.183 197.915 483.391 197.996C483.603 198.075 483.82 198.105 484.041 198.085C484.263 198.064 484.472 198.013 484.667 197.93C484.862 197.847 485.042 197.734 485.207 197.59C485.375 197.445 485.503 197.269 485.589 197.063C485.679 196.855 485.702 196.622 485.657 196.363C485.645 196.272 485.623 196.179 485.591 196.084C485.561 195.993 485.53 195.91 485.499 195.836L484.643 193.821L481.727 195.058ZM480.142 202.304L488.095 198.928L488.585 200.083L484.874 201.658L489.999 203.413L490.609 204.849L485.232 202.979L482.766 208.485L482.137 207.004L484.432 201.846L480.632 203.459L480.142 202.304ZM484.394 212.32L491.259 209.406L490.136 206.76L491.224 206.298L493.96 212.744L492.872 213.206L491.749 210.56L484.884 213.474L484.394 212.32ZM487.43 219.933C487.092 219.138 486.977 218.387 487.086 217.68C487.198 216.972 487.502 216.337 487.998 215.774C488.495 215.216 489.154 214.762 489.975 214.414C490.796 214.065 491.581 213.906 492.328 213.936C493.077 213.971 493.743 214.194 494.327 214.607C494.914 215.018 495.377 215.621 495.714 216.416C496.05 217.208 496.162 217.958 496.05 218.666C495.943 219.376 495.641 220.011 495.144 220.57C494.646 221.128 493.987 221.582 493.166 221.93C492.345 222.279 491.561 222.438 490.813 222.408C490.066 222.377 489.398 222.155 488.809 221.74C488.225 221.327 487.766 220.725 487.43 219.933ZM488.529 219.467C488.76 220.033 489.082 220.448 489.494 220.712C489.911 220.978 490.388 221.109 490.924 221.103C491.464 221.095 492.038 220.962 492.646 220.704C493.253 220.446 493.743 220.127 494.117 219.747C494.494 219.366 494.729 218.933 494.824 218.45C494.92 217.97 494.85 217.448 494.615 216.883C494.383 216.317 494.061 215.899 493.647 215.632C493.235 215.368 492.759 215.239 492.219 215.247C491.679 215.255 491.105 215.386 490.496 215.64C489.887 215.894 489.394 216.212 489.017 216.593C488.644 216.973 488.41 217.405 488.315 217.889C488.222 218.376 488.293 218.902 488.529 219.467ZM490.677 227.583C490.45 227.049 490.334 226.519 490.327 225.991C490.324 225.462 490.431 224.956 490.647 224.473C490.864 223.991 491.189 223.548 491.623 223.147C492.056 222.746 492.599 222.407 493.251 222.13C494.109 221.766 494.912 221.61 495.659 221.662C496.411 221.712 497.07 221.945 497.637 222.36C498.209 222.774 498.648 223.344 498.956 224.069C499.353 225.004 499.452 225.842 499.254 226.582C499.057 227.327 498.618 227.962 497.938 228.49L497.232 227.408C497.638 227.045 497.906 226.622 498.036 226.141C498.167 225.66 498.118 225.146 497.89 224.599C497.655 224.035 497.331 223.618 496.917 223.35C496.505 223.086 496.029 222.958 495.489 222.966C494.953 222.972 494.38 223.102 493.771 223.356C493.162 223.61 492.669 223.928 492.292 224.31C491.919 224.69 491.685 225.122 491.591 225.605C491.497 226.092 491.569 226.618 491.804 227.183C491.989 227.639 492.237 227.992 492.547 228.243C492.863 228.495 493.231 228.646 493.651 228.693C494.071 228.741 494.54 228.688 495.056 228.534L494.4 226.987L495.328 226.593L496.505 229.366C496.442 229.401 496.356 229.444 496.247 229.495C496.141 229.544 496.074 229.575 496.045 229.587C495.308 229.9 494.591 230.037 493.892 229.999C493.194 229.961 492.564 229.741 492.003 229.341C491.446 228.939 491.004 228.353 490.677 227.583ZM492.655 231.782L500.608 228.406L502.765 233.487L501.677 233.949L500.01 230.022L497.779 230.969L499.164 234.234L498.076 234.695L496.69 231.431L494.233 232.475L495.9 236.401L494.812 236.863L492.655 231.782ZM496.021 239.712L502.886 236.798L501.763 234.153L502.851 233.691L505.587 240.136L504.499 240.598L503.376 237.952L496.511 240.866L496.021 239.712ZM497.814 243.936L505.767 240.56L506.257 241.714L502.827 243.17L504.515 247.146L507.945 245.691L508.437 246.85L500.484 250.226L499.992 249.066L503.427 247.608L501.739 243.632L498.304 245.09L497.814 243.936ZM500.947 251.318L508.9 247.942L511.057 253.023L509.969 253.485L508.302 249.558L506.071 250.505L507.456 253.769L506.368 254.231L504.983 250.967L502.525 252.01L504.192 255.937L503.104 256.399L500.947 251.318ZM503.472 257.265L511.425 253.889L512.789 257.103C512.822 257.181 512.859 257.278 512.9 257.395C512.945 257.511 512.98 257.624 513.005 257.735C513.123 258.207 513.128 258.639 513.021 259.032C512.916 259.429 512.718 259.776 512.427 260.073C512.136 260.37 511.777 260.61 511.35 260.791C510.716 261.06 510.101 261.13 509.503 261.001C508.909 260.871 508.417 260.506 508.028 259.907L507.773 259.461L506.817 257.207L503.962 258.419L503.472 257.265ZM505.446 261.915L508.016 258.973L508.809 260.012L506.006 263.235L505.446 261.915ZM507.911 256.743L508.766 258.759C508.797 258.833 508.836 258.912 508.88 258.997C508.927 259.086 508.976 259.167 509.029 259.24C509.185 259.453 509.366 259.599 509.575 259.68C509.786 259.76 510.003 259.79 510.225 259.769C510.447 259.749 510.655 259.697 510.85 259.615C511.045 259.532 511.225 259.418 511.39 259.275C511.559 259.129 511.686 258.953 511.773 258.747C511.863 258.54 511.885 258.306 511.84 258.047C511.828 257.957 511.806 257.864 511.774 257.769C511.744 257.677 511.714 257.595 511.682 257.521L510.827 255.505L507.911 256.743Z" fill="#E3E3E5"/>
</svg>
