<svg width="493" height="387" viewBox="0 0 493 387" fill="none" xmlns="http://www.w3.org/2000/svg">
<path d="M488.483 382.358H376.975L376.046 379.661C367.656 355.319 347.439 324.725 325.255 309.688C320.906 306.741 317.232 305.676 314.184 305.602C311.138 305.527 308.384 306.434 305.86 307.979C300.652 311.167 296.77 316.85 294.325 320.986C284.465 337.667 272.242 354.361 253.855 366.2C235.392 378.089 211.097 384.84 177.52 382.347C149.86 380.293 128.079 365.108 112.223 347.384C97.6973 331.147 87.8917 312.515 82.8076 299.004L41.3477 310.238L37.8311 311.191L36.5547 307.779L29.2539 288.259L28.2354 285.536L30.5107 283.727L101.093 227.606L105.921 223.768L107.457 229.741C114.985 259.023 124.376 278.392 134.05 290.302C143.686 302.165 153.365 306.384 161.752 306.191C170.223 305.997 178.373 301.283 184.834 293.252C191.285 285.234 195.807 274.171 196.956 262.079C199.249 237.941 186.259 211.814 173.157 195.246C169.92 191.153 166.741 187.727 163.88 185.129C160.964 182.481 158.58 180.879 156.946 180.191C156.917 180.179 156.888 180.168 156.859 180.156C156.881 180.92 157.02 181.997 157.367 183.445C161.048 198.82 161.365 210.362 157.868 217.928C156.036 221.891 153.16 224.751 149.366 226.329C145.675 227.865 141.452 228.05 137.047 227.37C133.483 226.82 129.846 224.633 126.476 221.887C123.006 219.06 119.385 215.281 115.83 210.917C108.716 202.185 101.596 190.78 96.2471 179.089C90.9307 167.47 87.1806 155.174 87.2051 144.741C87.2174 139.491 88.1858 134.468 90.626 130.225C93.114 125.899 96.9873 122.645 102.275 120.816C117.468 115.564 132.71 117.365 145.394 121.562C155.288 124.835 163.817 129.624 169.861 133.942C170.902 128.96 170.173 122.772 167.705 115.469C164.44 105.808 158.376 94.9431 150.808 83.8438C135.689 61.6731 115.081 39.304 100.751 24.9375L97.8184 21.9971L100.866 19.1768C109.6 11.0945 121.756 6.77353 134.837 4.99609C147.96 3.2129 162.375 3.93668 176.056 6.27441C189.74 8.61288 202.86 12.5951 213.41 17.4492C223.733 22.1987 232.376 28.135 236.077 34.8135C238.7 39.5471 239.816 44.4651 237.082 48.4072C234.587 52.004 229.973 53.0189 226.157 53.2793C222.979 53.4962 219.356 53.246 215.679 52.7266L255.879 87.4072L260.8 91.6533L254.792 94.1338L238.155 101.001C243.978 111.808 253.181 126.479 263.992 139.313C270.066 146.524 276.57 153.062 283.186 158.004C289.829 162.967 296.352 166.145 302.491 166.994C305.652 167.431 307.582 167.157 308.693 166.714C309.645 166.334 310.135 165.789 310.448 164.98C310.823 164.015 310.999 162.484 310.705 160.237C310.416 158.028 309.711 155.405 308.624 152.452C304.234 140.522 294.416 125.279 286.571 114.793L282.106 108.825L289.547 108.403C323.578 106.472 349.67 125.505 366.428 147.486C374.822 158.497 380.99 170.381 384.759 181.063C388.469 191.578 390.054 201.5 388.609 208.379C387.057 215.772 382.231 220.062 376.205 222.11C370.453 224.066 363.575 224.025 357.113 223.265C355.651 223.093 354.188 222.878 352.737 222.637C376.651 236.898 394.851 261.329 407.647 283.721C415.926 298.207 422.087 312.094 426.177 322.353C428.223 327.486 429.756 331.72 430.779 334.681C431.098 335.603 431.367 336.402 431.587 337.065L485.254 347.593L488.483 348.227V382.358Z" fill="#060606" stroke="black" stroke-width="8"/>
<rect width="142.096" height="23.1789" transform="translate(109.684 337.973) rotate(-3)" fill="#9898A3"/>
<path d="M120.021 353.544L119.569 344.916L120.822 344.85L121.212 352.298L125.119 352.093L125.18 353.273L120.021 353.544ZM125.698 353.246L125.246 344.618L130.759 344.329L130.82 345.51L126.56 345.733L126.687 348.154L130.228 347.968L130.29 349.148L126.749 349.334L126.889 352L131.149 351.777L131.211 352.957L125.698 353.246ZM134.301 352.795L133.911 345.348L131.041 345.498L130.979 344.318L137.972 343.951L138.034 345.132L135.163 345.282L135.554 352.73L134.301 352.795ZM138.702 346.797L138.75 346.236C138.923 346.239 139.055 346.2 139.147 346.119C139.239 346.038 139.297 345.929 139.322 345.791C139.347 345.654 139.345 345.5 139.316 345.329L138.627 345.365L138.551 343.921L139.875 343.852L139.957 345.415C139.982 345.887 139.887 346.248 139.672 346.5C139.46 346.751 139.137 346.85 138.702 346.797ZM144.201 352.457C143.582 352.489 143.017 352.413 142.507 352.227C142 352.038 141.575 351.753 141.23 351.375C140.89 350.992 140.657 350.53 140.533 349.987L141.829 349.721C141.988 350.242 142.285 350.639 142.72 350.912C143.155 351.182 143.652 351.302 144.211 351.273C144.559 351.255 144.875 351.184 145.161 351.061C145.447 350.934 145.673 350.764 145.838 350.551C146.006 350.334 146.083 350.081 146.068 349.794C146.06 349.638 146.025 349.501 145.963 349.384C145.905 349.267 145.825 349.167 145.725 349.085C145.628 348.997 145.51 348.926 145.371 348.869C145.236 348.808 145.087 348.757 144.924 348.718L142.679 348.181C142.46 348.128 142.236 348.058 142.007 347.97C141.778 347.877 141.565 347.754 141.369 347.6C141.177 347.442 141.016 347.244 140.887 347.007C140.759 346.765 140.685 346.469 140.666 346.117C140.639 345.586 140.751 345.129 141.003 344.748C141.259 344.362 141.616 344.063 142.074 343.85C142.531 343.634 143.049 343.511 143.629 343.481C144.212 343.458 144.739 343.535 145.209 343.71C145.683 343.886 146.081 344.153 146.404 344.513C146.731 344.868 146.967 345.308 147.11 345.834L145.78 346.132C145.703 345.811 145.561 345.54 145.353 345.319C145.145 345.093 144.896 344.926 144.606 344.817C144.316 344.704 144.005 344.654 143.673 344.668C143.353 344.677 143.062 344.74 142.799 344.858C142.541 344.976 142.337 345.132 142.187 345.329C142.041 345.524 141.975 345.744 141.988 345.988C142 346.228 142.08 346.418 142.228 346.558C142.375 346.699 142.553 346.807 142.762 346.885C142.974 346.958 143.183 347.017 143.39 347.062L145.007 347.428C145.21 347.473 145.439 347.537 145.696 347.62C145.956 347.699 146.209 347.815 146.453 347.971C146.702 348.126 146.911 348.339 147.082 348.611C147.252 348.878 147.348 349.222 147.37 349.641C147.393 350.077 147.325 350.465 147.167 350.805C147.008 351.142 146.781 351.43 146.485 351.67C146.193 351.906 145.85 352.09 145.457 352.223C145.063 352.356 144.645 352.434 144.201 352.457ZM152.004 351.868L149.047 343.371L150.359 343.302L152.517 349.732L153.991 343.118L155.309 343.043L157.466 349.473L158.94 342.852L160.258 342.783L158.199 351.543L156.953 351.608L154.764 345.252L153.25 351.802L152.004 351.868ZM164.592 351.388C163.73 351.433 162.985 351.284 162.358 350.941C161.731 350.593 161.238 350.09 160.879 349.432C160.524 348.774 160.323 347.999 160.277 347.108C160.23 346.217 160.349 345.426 160.633 344.734C160.921 344.042 161.359 343.493 161.946 343.085C162.534 342.674 163.259 342.446 164.121 342.401C164.98 342.356 165.723 342.507 166.35 342.855C166.981 343.198 167.474 343.699 167.829 344.357C168.184 345.016 168.385 345.79 168.431 346.681C168.478 347.572 168.359 348.363 168.075 349.055C167.791 349.747 167.353 350.298 166.762 350.71C166.174 351.117 165.451 351.343 164.592 351.388ZM164.53 350.196C165.142 350.172 165.642 350.011 166.031 349.715C166.424 349.414 166.709 349.01 166.887 348.504C167.064 347.994 167.136 347.41 167.101 346.751C167.067 346.091 166.935 345.522 166.705 345.041C166.475 344.556 166.15 344.187 165.728 343.933C165.31 343.678 164.795 343.565 164.184 343.593C163.572 343.617 163.07 343.777 162.677 344.074C162.288 344.371 162.005 344.775 161.827 345.285C161.65 345.795 161.576 346.379 161.607 347.039C161.637 347.698 161.767 348.27 161.997 348.754C162.227 349.235 162.552 349.603 162.974 349.857C163.4 350.111 163.919 350.224 164.53 350.196ZM169.353 350.958L168.901 342.33L172.388 342.148C172.472 342.143 172.576 342.142 172.701 342.143C172.825 342.141 172.943 342.147 173.056 342.161C173.539 342.211 173.947 342.354 174.28 342.589C174.617 342.824 174.875 343.129 175.055 343.504C175.235 343.879 175.337 344.298 175.361 344.762C175.397 345.449 175.253 346.051 174.927 346.569C174.602 347.082 174.091 347.42 173.394 347.58L172.888 347.667L170.443 347.795L170.606 350.893L169.353 350.958ZM174.398 350.694L172.513 347.272L173.76 346.882L175.83 350.619L174.398 350.694ZM170.381 346.609L172.568 346.494C172.648 346.49 172.736 346.481 172.831 346.468C172.931 346.455 173.024 346.436 173.11 346.412C173.363 346.338 173.563 346.218 173.71 346.05C173.858 345.878 173.96 345.684 174.016 345.469C174.073 345.254 174.096 345.04 174.085 344.828C174.074 344.617 174.029 344.409 173.95 344.205C173.871 343.996 173.75 343.817 173.585 343.665C173.421 343.509 173.209 343.408 172.951 343.362C172.862 343.342 172.767 343.331 172.667 343.329C172.57 343.326 172.482 343.326 172.402 343.33L170.215 343.445L170.381 346.609ZM176.648 350.576L176.196 341.948L177.448 341.882L177.659 345.909L181.061 341.693L182.619 341.611L179.023 346.024L183.353 350.225L181.747 350.309L177.684 346.388L177.9 350.511L176.648 350.576ZM187.514 350.007L187.123 342.559L184.253 342.709L184.191 341.529L191.184 341.163L191.246 342.343L188.376 342.493L188.766 349.941L187.514 350.007ZM195.706 349.758C194.843 349.803 194.098 349.654 193.472 349.31C192.844 348.962 192.351 348.459 191.993 347.801C191.638 347.143 191.437 346.368 191.39 345.478C191.343 344.587 191.462 343.796 191.746 343.104C192.035 342.412 192.472 341.862 193.06 341.455C193.647 341.043 194.372 340.815 195.235 340.77C196.094 340.725 196.837 340.876 197.464 341.224C198.095 341.567 198.588 342.068 198.942 342.727C199.297 343.385 199.498 344.159 199.545 345.05C199.592 345.941 199.473 346.732 199.189 347.424C198.904 348.116 198.467 348.668 197.875 349.079C197.288 349.486 196.565 349.713 195.706 349.758ZM195.644 348.565C196.255 348.541 196.755 348.381 197.144 348.084C197.537 347.783 197.822 347.38 198 346.874C198.178 346.364 198.249 345.779 198.215 345.12C198.18 344.461 198.048 343.891 197.819 343.41C197.589 342.926 197.263 342.556 196.841 342.302C196.423 342.048 195.909 341.934 195.297 341.962C194.686 341.986 194.184 342.147 193.791 342.444C193.402 342.741 193.118 343.144 192.941 343.654C192.763 344.164 192.69 344.749 192.72 345.408C192.751 346.067 192.881 346.639 193.111 347.124C193.34 347.605 193.666 347.972 194.088 348.226C194.514 348.48 195.032 348.593 195.644 348.565ZM204.005 349.323C203.426 349.353 202.888 349.281 202.39 349.107C201.892 348.929 201.453 348.655 201.073 348.287C200.693 347.918 200.389 347.461 200.16 346.917C199.931 346.372 199.798 345.746 199.761 345.039C199.713 344.108 199.841 343.3 200.145 342.616C200.449 341.927 200.894 341.387 201.478 340.996C202.062 340.6 202.748 340.382 203.535 340.341C204.549 340.288 205.371 340.481 205.998 340.921C206.63 341.36 207.078 341.99 207.341 342.809L206.083 343.103C205.88 342.597 205.575 342.201 205.167 341.914C204.76 341.627 204.26 341.497 203.669 341.524C203.057 341.552 202.555 341.714 202.162 342.011C201.773 342.308 201.49 342.711 201.312 343.221C201.135 343.727 201.061 344.31 201.092 344.969C201.122 345.629 201.252 346.2 201.482 346.685C201.711 347.166 202.037 347.533 202.459 347.788C202.885 348.042 203.403 348.155 204.015 348.127C204.507 348.109 204.923 347.997 205.265 347.791C205.61 347.58 205.877 347.286 206.066 346.908C206.254 346.529 206.364 346.071 206.396 345.532L204.719 345.62L204.666 344.614L207.674 344.456C207.686 344.528 207.697 344.623 207.707 344.743C207.717 344.858 207.723 344.932 207.724 344.964C207.766 345.763 207.65 346.484 207.375 347.127C207.1 347.771 206.679 348.287 206.111 348.678C205.542 349.064 204.84 349.279 204.005 349.323ZM208.628 348.9L208.175 340.272L213.688 339.983L213.75 341.164L209.489 341.387L209.616 343.807L213.157 343.622L213.219 344.802L209.678 344.988L209.818 347.654L214.078 347.431L214.14 348.611L208.628 348.9ZM217.231 348.449L216.84 341.002L213.97 341.152L213.908 339.972L220.901 339.605L220.963 340.786L218.093 340.936L218.483 348.384L217.231 348.449ZM221.813 348.209L221.36 339.581L222.613 339.515L222.808 343.236L227.122 343.01L226.927 339.289L228.185 339.223L228.637 347.852L227.379 347.917L227.184 344.191L222.87 344.417L223.065 348.144L221.813 348.209ZM229.821 347.789L229.369 339.161L234.881 338.872L234.943 340.053L230.683 340.276L230.81 342.697L234.351 342.511L234.413 343.692L230.872 343.877L231.012 346.543L235.272 346.32L235.334 347.501L229.821 347.789ZM236.273 347.451L235.821 338.823L239.308 338.64C239.392 338.636 239.496 338.635 239.62 338.636C239.744 338.634 239.863 338.639 239.976 338.654C240.459 338.704 240.867 338.847 241.2 339.082C241.537 339.317 241.795 339.622 241.975 339.997C242.155 340.372 242.257 340.791 242.281 341.254C242.317 341.941 242.172 342.544 241.847 343.062C241.522 343.575 241.01 343.913 240.314 344.073L239.808 344.16L237.363 344.288L237.525 347.386L236.273 347.451ZM241.318 347.187L239.433 343.765L240.68 343.375L242.75 347.112L241.318 347.187ZM237.301 343.102L239.488 342.987C239.568 342.983 239.656 342.974 239.751 342.961C239.85 342.948 239.944 342.929 240.03 342.904C240.283 342.831 240.483 342.711 240.63 342.543C240.777 342.371 240.879 342.177 240.936 341.962C240.993 341.747 241.016 341.533 241.005 341.321C240.994 341.11 240.949 340.902 240.87 340.698C240.791 340.489 240.669 340.309 240.505 340.158C240.341 340.002 240.129 339.901 239.871 339.855C239.781 339.835 239.687 339.824 239.586 339.822C239.49 339.819 239.402 339.819 239.322 339.823L237.135 339.938L237.301 343.102Z" fill="#060606"/>
<path d="M405 165.5L117 158.5L7 341.5L468 318.5L405 165.5Z" stroke="#9898A3" stroke-width="7"/>
<path d="M416.108 158V176.109H398V158H416.108Z" fill="#D2D2D6" stroke="#9898A3" stroke-width="4"/>
<path d="M473.108 309V327.109H455V309H473.108Z" fill="#D2D2D6" stroke="#9898A3" stroke-width="4"/>
<path d="M20.1084 331V349.109H2V331H20.1084Z" fill="#D2D2D6" stroke="#9898A3" stroke-width="4"/>
<path d="M126.108 151V169.109H108V151H126.108Z" fill="#D2D2D6" stroke="#9898A3" stroke-width="4"/>
</svg>
