<svg width="24" height="24" viewBox="0 0 24 24" fill="none" xmlns="http://www.w3.org/2000/svg">
<rect width="24" height="24" rx="12" fill="#060606"/>
<path d="M17.5195 6C17.7846 6 18 6.20701 18 6.46191V11.5381C18 11.793 17.7846 12 17.5195 12H14.8799C14.6148 11.9999 14.4004 11.7929 14.4004 11.5381V9.97656C14.4001 9.48047 13.697 9.33437 13.4834 9.78613L9.72754 17.7295C9.64962 17.8941 9.47914 18 9.29102 18H6.48047C6.21537 18 6 17.793 6 17.5381V12.4619C6 12.207 6.21537 12 6.48047 12H9.12012C9.38516 12.0001 9.59961 12.2071 9.59961 12.4619V14.0234C9.59993 14.5195 10.303 14.6656 10.5166 14.2139L14.2725 6.27051C14.3504 6.10587 14.5209 6.00004 14.709 6H17.5195Z" fill="white"/>
</svg>
