<svg preserveAspectRatio="none" width="100%" height="100%" overflow="visible" style="display: block;" viewBox="0 0 69 70" fill="none" xmlns="http://www.w3.org/2000/svg">
<path id="logo" d="M60.6367 0C65.2557 0.000190816 69 3.68724 69 8.23535V36.6338C68.9999 39.9056 67.6813 43.0435 65.334 45.3594L44.0342 66.373C41.6809 68.6948 38.4866 69.9999 35.1553 70H8.36328C3.74434 69.9998 0 66.3128 0 61.7646V33.3662C0.000106564 30.0944 1.31872 26.9565 3.66602 24.6406L24.9658 3.62695C27.3191 1.30523 30.5134 0.000111548 33.8447 0H60.6367ZM46.0137 9.76562C45.2138 9.76563 44.4873 10.2149 44.1562 10.915L28.1973 44.6758C27.2894 46.5959 24.3002 45.9734 24.2998 43.8643V37.2275C24.2998 36.1442 23.3864 35.2656 22.2598 35.2656H11.04C9.91338 35.2656 9 36.1442 9 37.2275V58.8037C9 59.887 9.91338 60.7656 11.04 60.7656H22.9863C23.7862 60.7656 24.5127 60.3163 24.8438 59.6162L40.8027 25.8555C41.7106 23.9354 44.6998 24.5579 44.7002 26.667V33.3037C44.7002 34.387 45.6136 35.2656 46.7402 35.2656H57.96C59.0866 35.2656 60 34.387 60 33.3037V11.7275C60 10.6442 59.0866 9.76562 57.96 9.76562H46.0137Z" fill="var(--fill-0, #060606)"/>
</svg>
